<svg width="76" height="39" viewBox="0 0 76 39" fill="none" xmlns="http://www.w3.org/2000/svg">
<path d="M54.1531 0C54.1945 0 54.2349 0.0108586 54.2718 0.02976C54.2909 0.0395579 54.3102 0.0479069 54.3303 0.0508539C54.9939 0.148078 55.3193 0.542181 55.2788 1.20602C55.1842 2.7514 53.5315 4.04234 52.4147 4.13273C48.3874 4.45866 44.3958 5.04066 40.4998 6.1596C37.5681 7.0016 34.8081 8.20711 32.3529 10.0422C31.7296 10.5081 31.1532 11.0363 30.5493 11.5286C29.9261 12.0367 29.272 12.5231 28.4393 12.5688C27.8465 12.6013 27.2463 12.521 26.6507 12.4743C26.1772 12.4372 25.7059 12.3728 25.2332 12.3241C24.8496 12.2846 24.7109 12.1476 24.6133 11.7772C24.539 11.4956 24.4569 11.2069 24.3198 10.9527C23.9556 10.2773 23.2369 9.90147 22.5792 10.0027C21.8365 10.117 21.24 10.6524 21.1266 11.4453C20.9991 12.3364 20.9169 13.2399 20.8987 14.1396C20.8283 17.6359 20.7903 21.1328 20.743 24.6296C20.7414 24.7521 20.7438 24.8749 20.7491 24.9976C20.7723 25.5314 21.2077 25.8495 21.7209 25.7012C22.4856 25.4804 23.2454 25.2428 24.0088 25.0175C27.455 24.0006 30.9558 23.2389 34.5156 22.7414C38.8413 22.1368 43.185 21.9542 47.5464 22.1363C48.0024 22.1554 48.4585 22.1791 48.9133 22.216C49.7118 22.2806 50.1674 21.8396 50.0963 21.0459C50.0387 20.4028 49.9558 19.7618 49.9071 19.1182C49.711 16.5242 49.668 13.9356 50.2781 11.3809C50.5671 10.1709 51.0362 9.04281 51.8055 8.046C53.6106 5.7072 56.4455 5.96026 58.0305 6.92483C59.184 7.62679 59.8459 8.73656 60.2622 9.99174C60.6817 11.2564 60.6649 12.5541 60.4641 13.8528C60.066 16.4271 59.0834 18.8082 58.0184 21.1609C57.8935 21.437 57.7562 21.709 57.654 21.9934C57.4304 22.6154 57.6219 22.9397 58.2737 23.038C58.856 23.1258 59.4427 23.1846 60.0262 23.2648C62.5317 23.6088 64.9927 24.1637 67.426 24.844C68.0639 25.0224 68.3132 25.4543 68.1624 26.1404C67.8095 27.7466 67.2798 29.2962 66.5834 30.7861C65.9818 32.0735 65.2434 33.2732 64.2625 34.3145C62.5758 36.1053 60.4906 36.8799 58.0563 36.7175C56.9041 36.6406 55.8559 36.2024 54.9189 35.5463C54.2678 35.0904 53.675 34.5512 53.0574 34.0476C53.0567 34.047 53.056 34.0465 53.0552 34.0459C52.9466 33.9568 52.7897 33.9575 52.6874 34.0539C52.1885 34.5239 51.7096 34.9983 51.193 35.4273C50.386 36.0972 49.4688 36.5643 48.416 36.7245C47.2156 36.9071 46.1195 36.5963 45.0846 36.0111C44.1997 35.5107 43.4434 34.8487 42.7389 34.1235C42.7245 34.1087 42.71 34.0939 42.6956 34.0794C42.6019 33.9847 42.4532 33.9708 42.3436 34.0467C41.6681 34.5148 41.0149 35.0043 40.3153 35.4148C38.6765 36.3764 36.9023 36.8842 34.9865 36.7775C33.5172 36.6957 32.1999 36.2447 31.1659 35.1295C30.4741 34.3834 30.2406 33.4661 30.142 32.501C29.9948 31.0606 30.1938 29.6593 30.7093 28.307C30.7835 28.1125 30.8743 27.9243 30.9719 27.7277C31.0682 27.5337 30.9135 27.3089 30.6979 27.3302C29.9616 27.4032 29.2777 27.5683 28.6776 28.0131C28.0473 28.4803 27.822 29.1622 27.7918 29.9076C27.7521 30.885 27.7774 31.8653 27.7267 32.8419C27.6337 34.6328 26.8855 36.1069 25.3546 37.0653C22.6108 38.7829 18.2385 38.6567 15.8648 35.368C15.5599 34.9456 15.3366 34.4644 15.0829 33.9848C15.0182 33.8624 14.8739 33.8059 14.7441 33.8539C13.643 34.2609 12.505 34.6858 11.3632 35.1C9.51941 35.7688 7.67714 36.4425 5.82442 37.086C5.16113 37.3163 4.47016 37.4598 3.75286 37.37C3.29528 37.3127 2.88602 37.1423 2.5466 36.84C2.25697 36.582 1.97269 36.3078 1.73751 36.0013C1.28132 35.4068 0.858247 34.7868 0.428495 34.1724C0.325845 34.0256 0.242127 33.8637 0.164711 33.7016C-0.150944 33.0407 -0.0231024 32.6276 0.63667 32.3036C0.99208 32.1291 1.37367 32.004 1.75031 31.877C6.21354 30.3715 10.6778 28.8692 15.1432 27.37C15.2985 27.3179 15.3587 27.2495 15.3619 27.0758C15.4489 22.287 15.5319 17.4981 15.6408 12.7097C15.686 10.7204 16.2388 8.88639 17.5615 7.35299C19.8814 4.66338 23.6914 4.2406 26.6321 6.35901C27.2134 6.77773 27.7249 7.29316 28.2785 7.79487C28.3793 7.88615 28.5316 7.88947 28.6367 7.80322C28.8513 7.62708 29.0923 7.42825 29.3378 7.23517C32.162 5.0139 35.3463 3.48998 38.751 2.39736C41.3603 1.56002 44.0276 0.966847 46.7451 0.631707C48.6869 0.392233 50.6401 0.245204 52.588 0.0546812C52.6168 0.0518599 52.6447 0.0399133 52.6725 0.02672C52.7094 0.0092074 52.7498 0 52.7906 0C53.2448 0 53.6989 0 54.1531 0ZM40.4721 28.9894C40.4685 28.392 40.3636 27.6071 39.9539 26.8931C39.721 26.4873 39.4024 26.2003 38.9041 26.1604C37.2023 26.0241 35.5536 26.3314 33.9231 26.7644C33.5426 26.8655 33.3098 27.1647 33.2105 27.5518C33.0148 28.315 33.0705 29.0789 33.2181 29.8399C33.5677 31.6431 34.5142 32.8949 36.3873 33.3384C37.9739 33.714 39.2427 33.1478 39.9462 31.683C40.323 30.8987 40.473 30.064 40.4721 28.9894ZM45.5781 25.5734C45.5713 25.5733 45.5645 25.5735 45.5578 25.5739C45.0017 25.6062 44.445 25.6307 43.8898 25.6735C43.3446 25.7155 43.1105 25.9499 43.0517 26.4925C43.0386 26.6139 43.0285 26.746 43.0617 26.8602C43.2328 27.4487 43.3631 28.0577 43.6108 28.6136C44.123 29.7634 44.7837 30.8272 45.7501 31.6647C46.2772 32.1215 46.9031 32.3244 47.5959 32.2618C49.0881 32.1271 50.1526 31.3517 50.7752 30.0079C51.4051 28.6483 50.98 27.2984 49.7119 26.4971C49.4732 26.3463 49.2142 26.2206 48.9516 26.1157C47.8688 25.6836 46.7312 25.5878 45.5781 25.5734ZM57.8623 26.3499C57.8555 26.3496 57.8487 26.3496 57.842 26.3498C57.2126 26.3676 56.5719 26.3973 56.0008 26.6994C55.7473 26.8334 55.4711 27.0476 55.3552 27.2954C54.9935 28.0694 54.9097 28.8954 55.1099 29.7388C55.3733 30.8479 56.0696 31.6491 56.9282 32.3482C57.6747 32.956 58.5059 33.1044 59.4145 32.8621C60.8039 32.4915 61.6127 31.5151 62.1048 30.2262C62.2983 29.7194 62.364 29.1979 62.2174 28.6643C62.0029 27.8828 61.4511 27.3956 60.7683 27.0334C59.8628 26.5529 58.8813 26.3823 57.8623 26.3499ZM21.7955 33.4245C21.8089 33.4246 21.8219 33.4238 21.8352 33.4223C21.8998 33.415 22.0113 33.4069 22.119 33.3819C23.1608 33.1403 24.072 31.854 23.9462 30.7935C23.8932 30.3474 23.7547 30.0034 23.1029 30.1461C22.1679 30.3508 21.2912 30.6473 20.6032 31.3444C20.1316 31.8223 20.1375 32.4597 20.6032 32.9456C20.9114 33.2671 21.2927 33.4189 21.7955 33.4245Z" fill="#1C88D3"/>
<path d="M76 32.8857C75.9454 33.0507 75.8864 33.2145 75.837 33.3811C75.3169 35.1323 73.5941 36.3321 71.8408 36.1624C69.8737 35.972 68.4184 34.5693 68.2263 32.6785C68.008 30.5306 69.4981 28.688 71.6879 28.3979C73.6732 28.135 75.5987 29.5976 75.9458 31.6302C75.9526 31.6704 75.9814 31.7069 76 31.7451C76 32.1253 76 32.5055 76 32.8857Z" fill="#1C88D3"/>
</svg>
